<svg width="180" height="26" viewBox="0 0 180 26" fill="none" xmlns="http://www.w3.org/2000/svg">
<path d="M125.498 0H118.675V25.8528H125.498V0Z" fill="white"/>
<path d="M97.4001 14.6751L87.7247 0H80.7991L94.44 22.8629H99.9343L107.373 10.2233C107.496 10.0508 107.624 9.85279 107.763 9.62944C107.763 9.76141 107.753 9.88324 107.753 9.99492V25.8528H114.15V0H107.758L97.4001 14.6751Z" fill="white"/>
<path d="M14.7798 0L0 25.8528H6.95128L9.88057 20.4112H25.2503L28.272 25.8528H35.962L20.9872 0H14.7849H14.7798ZM12.9022 14.9543L17.6732 6.31472L22.3005 14.9543H12.9022Z" fill="white"/>
<path d="M59.7913 0H29.8315V5.05583L41.5795 25.8528H48.0024L59.7913 5.05583V0Z" fill="black"/>
<path d="M68.4971 0L53.7173 25.8528H60.6686L63.5979 20.4112H78.9676L81.9893 25.8528H89.6793L74.7045 0H68.5022H68.4971ZM76.023 14.9543H66.6195L71.3905 6.31472L76.0178 14.9543H76.023Z" fill="white"/>
<path d="M29.8315 0V5.40609H41.3794V25.8528H48.2024V5.40609H59.7913V0H29.8315Z" fill="#53797B"/>
<path d="M138.774 25.5786V0.14209H141.929V25.5786H138.774Z" fill="#78B8BA"/>
<path d="M158.669 19.6443L161.932 20.0453C161.419 21.9285 160.464 23.3955 159.074 24.4361C157.684 25.4768 155.904 25.9996 153.744 25.9996C151.02 25.9996 148.86 25.1722 147.265 23.5123C145.669 21.8524 144.869 19.5224 144.869 16.5275C144.869 13.5326 145.674 11.0199 147.29 9.30925C148.901 7.59859 150.994 6.74072 153.57 6.74072C156.145 6.74072 158.094 7.57829 159.669 9.25849C161.249 10.9336 162.034 13.294 162.034 16.3397C162.034 16.5275 162.029 16.8016 162.019 17.1722H148.132C148.25 19.1976 148.829 20.7458 149.866 21.8219C150.907 22.8981 152.205 23.4361 153.759 23.4361C154.919 23.4361 155.904 23.1367 156.725 22.5326C157.54 21.9336 158.192 20.9691 158.669 19.6544V19.6443ZM148.306 14.5935H158.705C158.566 13.0453 158.166 11.8829 157.515 11.1062C156.509 9.90316 155.206 9.30417 153.605 9.30417C152.154 9.30417 150.938 9.78641 149.948 10.7458C148.958 11.7052 148.414 12.9895 148.306 14.5986V14.5935Z" fill="#78B8BA"/>
<path d="M177.076 25.5786V23.2538C175.896 25.0812 174.157 25.9949 171.869 25.9949C170.386 25.9949 169.022 25.5888 167.775 24.7817C166.529 23.9746 165.564 22.8426 164.882 21.3908C164.199 19.939 163.856 18.269 163.856 16.3857C163.856 14.5025 164.164 12.8781 164.784 11.3807C165.405 9.8832 166.334 8.73599 167.57 7.93904C168.811 7.14209 170.197 6.74107 171.725 6.74107C172.849 6.74107 173.849 6.97457 174.721 7.44158C175.599 7.90858 176.312 8.5228 176.861 9.27406V0.14209H180V25.5786H177.071H177.076ZM167.098 16.3807C167.098 18.7411 167.601 20.5025 168.606 21.67C169.612 22.8375 170.797 23.4213 172.166 23.4213C173.536 23.4213 174.716 22.8629 175.681 21.7461C176.645 20.6294 177.127 18.9289 177.127 16.6345C177.127 14.1116 176.635 12.2639 175.655 11.0812C174.675 9.89843 173.464 9.3096 172.023 9.3096C170.581 9.3096 169.448 9.87812 168.509 11.0101C167.57 12.1421 167.098 13.9289 167.098 16.3705V16.3807Z" fill="#78B8BA"/>
</svg>
