<svg width="43" height="43" viewBox="0 0 43 43" fill="none" xmlns="http://www.w3.org/2000/svg">
<path d="M23.3147 9.67903C25.8145 10.098 28.0853 11.2786 29.8981 13.0877C31.7109 14.8968 32.8844 17.163 33.3137 19.6576M23.6964 1.5C28.1426 2.2522 32.1975 4.35646 35.4224 7.56522C38.6472 10.7835 40.7463 14.8302 41.5 19.2672M38.027 36.9201C38.027 36.9201 35.6131 39.291 35.0216 39.9861C34.0579 41.0144 32.9225 41.5 31.4341 41.5C31.291 41.5 31.1384 41.5 30.9952 41.4905C28.1616 41.3096 25.5282 40.2051 23.5532 39.2624C18.153 36.6535 13.4111 32.9497 9.47067 28.2555C6.21717 24.3422 4.04182 20.724 2.60112 16.8392C1.7138 14.4683 1.38941 12.6212 1.53252 10.8787C1.62793 9.76469 2.05728 8.84111 2.84919 8.05082L6.10268 4.80397C6.57019 4.36598 7.06632 4.12794 7.55292 4.12794C8.154 4.12794 8.6406 4.48976 8.94591 4.79445C8.95545 4.80397 8.96499 4.81349 8.97453 4.82301C9.55654 5.36574 10.1099 5.92751 10.6919 6.52737C10.9877 6.83206 11.293 7.13675 11.5983 7.45096L14.203 10.0503C15.2144 11.0596 15.2144 11.9927 14.203 13.002C13.9263 13.2781 13.6592 13.5543 13.3825 13.8209C12.581 14.6397 13.2106 14.0114 12.3806 14.7541C12.3615 14.7731 12.3424 14.7827 12.3329 14.8017C11.5123 15.6206 11.665 16.4204 11.8367 16.9631C11.8463 16.9917 11.8558 17.0202 11.8653 17.0488C12.5428 18.6865 13.4969 20.229 14.9471 22.0666L14.9566 22.0762C17.59 25.3135 20.3664 27.8367 23.4291 29.7696C23.8203 30.0171 24.221 30.2171 24.6026 30.4075C24.9461 30.5789 25.2705 30.7408 25.5472 30.9122C25.5853 30.9312 25.6235 30.9598 25.6617 30.9788C25.9861 31.1407 26.2914 31.2169 26.6062 31.2169C27.3981 31.2169 27.8943 30.7217 28.0565 30.5599L29.9266 28.6935C30.251 28.3698 30.7663 27.9794 31.3673 27.9794C31.9589 27.9794 32.4455 28.3507 32.7413 28.6745C32.7508 28.684 32.7508 28.684 32.7603 28.6935L38.0174 33.9399C39.0002 34.9111 38.027 36.9201 38.027 36.9201Z" stroke="white" stroke-width="3" stroke-linecap="round" stroke-linejoin="round"/>
</svg>
